G04 #@! TF.FileFunction,Soldermask,Bot*
%FSLAX46Y46*%
G04 Gerber Fmt 4.6, Leading zero omitted, Abs format (unit mm)*
G04 Created by KiCad (PCBNEW 4.0.6) date Tuesday, July 03, 2018 'PMt' 09:33:00 PM*
%MOMM*%
%LPD*%
G01*
G04 APERTURE LIST*
%ADD10C,0.100000*%
%ADD11C,2.398980*%
%ADD12C,3.600000*%
%ADD13C,2.647900*%
%ADD14C,5.400000*%
%ADD15R,2.100000X2.100000*%
%ADD16O,2.100000X2.100000*%
%ADD17R,3.400000X10.400000*%
%ADD18R,10.400000X3.400000*%
%ADD19R,1.000000X2.400000*%
G04 APERTURE END LIST*
D10*
D11*
X183000000Y-88450000D03*
X183000000Y-82250000D03*
X187000000Y-88450000D03*
X187000000Y-82250000D03*
X183000000Y-60450000D03*
X183000000Y-54250000D03*
X187000000Y-60450000D03*
X155000000Y-60450000D03*
X155000000Y-54250000D03*
X159000000Y-60450000D03*
X127000000Y-60450000D03*
X127000000Y-54250000D03*
X131000000Y-60450000D03*
X99000000Y-60450000D03*
X99000000Y-54250000D03*
X103000000Y-60450000D03*
D12*
X106250000Y-144000000D03*
D11*
X101000000Y-151000000D03*
X103500000Y-151000000D03*
X98500000Y-151000000D03*
D12*
X95750000Y-144000000D03*
X106250000Y-88000000D03*
D11*
X101000000Y-95000000D03*
X103500000Y-95000000D03*
X98500000Y-95000000D03*
D12*
X95750000Y-88000000D03*
D13*
X102998980Y-54252520D03*
X102998980Y-97747480D03*
X99001020Y-97747480D03*
D14*
X195000000Y-155000000D03*
X91000000Y-155000000D03*
X91000000Y-51000000D03*
X195000000Y-51000000D03*
D15*
X107000000Y-51000000D03*
D16*
X109540000Y-51000000D03*
X112080000Y-51000000D03*
X114620000Y-51000000D03*
X117160000Y-51000000D03*
X119700000Y-51000000D03*
X122240000Y-51000000D03*
D17*
X88500000Y-103000000D03*
D18*
X143000000Y-157500000D03*
D17*
X197500000Y-103000000D03*
D18*
X143000000Y-48500000D03*
D13*
X102998980Y-104252520D03*
X102998980Y-147747480D03*
X99001020Y-147747480D03*
X130998980Y-104252520D03*
X130998980Y-147747480D03*
X127001020Y-147747480D03*
X158998980Y-104252520D03*
X158998980Y-147747480D03*
X155001020Y-147747480D03*
X186998980Y-104252520D03*
X186998980Y-147747480D03*
X183001020Y-147747480D03*
X186998980Y-54252520D03*
X186998980Y-97747480D03*
X183001020Y-97747480D03*
X158998980Y-54252520D03*
X158998980Y-97747480D03*
X155001020Y-97747480D03*
X130998980Y-54252520D03*
X130998980Y-97747480D03*
X127001020Y-97747480D03*
D19*
X136015000Y-96300000D03*
X137285000Y-96300000D03*
X138555000Y-96300000D03*
X139825000Y-96300000D03*
X141095000Y-96300000D03*
X142365000Y-96300000D03*
X143635000Y-96300000D03*
X144905000Y-96300000D03*
X146175000Y-96300000D03*
X147445000Y-96300000D03*
X148715000Y-96300000D03*
X149985000Y-96300000D03*
X149985000Y-105700000D03*
X148715000Y-105700000D03*
X147445000Y-105700000D03*
X146175000Y-105700000D03*
X144905000Y-105700000D03*
X143635000Y-105700000D03*
X142365000Y-105700000D03*
X141095000Y-105700000D03*
X139825000Y-105700000D03*
X138555000Y-105700000D03*
X137285000Y-105700000D03*
X136015000Y-105700000D03*
D12*
X106250000Y-60000000D03*
D11*
X101000000Y-67000000D03*
X103500000Y-67000000D03*
X98500000Y-67000000D03*
D12*
X95750000Y-60000000D03*
X134250000Y-60000000D03*
D11*
X129000000Y-67000000D03*
X131500000Y-67000000D03*
X126500000Y-67000000D03*
D12*
X123750000Y-60000000D03*
X162250000Y-60000000D03*
D11*
X157000000Y-67000000D03*
X159500000Y-67000000D03*
X154500000Y-67000000D03*
D12*
X151750000Y-60000000D03*
X190250000Y-60000000D03*
D11*
X185000000Y-67000000D03*
X187500000Y-67000000D03*
X182500000Y-67000000D03*
D12*
X179750000Y-60000000D03*
X134250000Y-88000000D03*
D11*
X129000000Y-95000000D03*
X131500000Y-95000000D03*
X126500000Y-95000000D03*
D12*
X123750000Y-88000000D03*
X162250000Y-88000000D03*
D11*
X157000000Y-95000000D03*
X159500000Y-95000000D03*
X154500000Y-95000000D03*
D12*
X151750000Y-88000000D03*
X190250000Y-88000000D03*
D11*
X185000000Y-95000000D03*
X187500000Y-95000000D03*
X182500000Y-95000000D03*
D12*
X179750000Y-88000000D03*
X106250000Y-116000000D03*
D11*
X101000000Y-123000000D03*
X103500000Y-123000000D03*
X98500000Y-123000000D03*
D12*
X95750000Y-116000000D03*
X134250000Y-116000000D03*
D11*
X129000000Y-123000000D03*
X131500000Y-123000000D03*
X126500000Y-123000000D03*
D12*
X123750000Y-116000000D03*
X162250000Y-116000000D03*
D11*
X157000000Y-123000000D03*
X159500000Y-123000000D03*
X154500000Y-123000000D03*
D12*
X151750000Y-116000000D03*
X190250000Y-116000000D03*
D11*
X185000000Y-123000000D03*
X187500000Y-123000000D03*
X182500000Y-123000000D03*
D12*
X179750000Y-116000000D03*
X134250000Y-144000000D03*
D11*
X129000000Y-151000000D03*
X131500000Y-151000000D03*
X126500000Y-151000000D03*
D12*
X123750000Y-144000000D03*
X162250000Y-144000000D03*
D11*
X157000000Y-151000000D03*
X159500000Y-151000000D03*
X154500000Y-151000000D03*
D12*
X151750000Y-144000000D03*
X190250000Y-144000000D03*
D11*
X185000000Y-151000000D03*
X187500000Y-151000000D03*
X182500000Y-151000000D03*
D12*
X179750000Y-144000000D03*
D11*
X99000000Y-88450000D03*
X99000000Y-82250000D03*
X103000000Y-88450000D03*
X103000000Y-82250000D03*
X127000000Y-88450000D03*
X127000000Y-82250000D03*
X131000000Y-88450000D03*
X131000000Y-82250000D03*
X155000000Y-88450000D03*
X155000000Y-82250000D03*
X159000000Y-88450000D03*
X159000000Y-82250000D03*
X99000000Y-116450000D03*
X99000000Y-110250000D03*
X103000000Y-116450000D03*
X103000000Y-110250000D03*
X127000000Y-116450000D03*
X127000000Y-110250000D03*
X131000000Y-116450000D03*
X131000000Y-110250000D03*
X155000000Y-116450000D03*
X155000000Y-110250000D03*
X159000000Y-116450000D03*
X159000000Y-110250000D03*
X183000000Y-116450000D03*
X183000000Y-110250000D03*
X187000000Y-116450000D03*
X187000000Y-110250000D03*
X99000000Y-144450000D03*
X99000000Y-138250000D03*
X103000000Y-144450000D03*
X103000000Y-138250000D03*
X127000000Y-144450000D03*
X127000000Y-138250000D03*
X131000000Y-144450000D03*
X131000000Y-138250000D03*
X155000000Y-144450000D03*
X155000000Y-138250000D03*
X159000000Y-144450000D03*
X159000000Y-138250000D03*
X183000000Y-144450000D03*
X183000000Y-138250000D03*
X187000000Y-144450000D03*
X187000000Y-138250000D03*
M02*
