M48
;DRILL file {KiCad 4.0.6} date Tuesday, July 03, 2018 'PMt' 09:33:04 PM
;FORMAT={-:-/ absolute / metric / decimal}
FMAT,2
METRIC,TZ
T1C0.400
T2C1.000
T3C1.200
T4C1.499
T5C2.200
T6C3.200
%
G90
G05
M71
T1
X91.14Y-115.06
X91.25Y-91.06
X91.85Y-111.15
X93.42Y-106.98
X93.88Y-99.03
X113.03Y-127.89
X114.5Y-102.68
X115.04Y-113.35
X115.06Y-117.4
X115.17Y-119.3
X116.4Y-125.12
X117.08Y-69.79
X117.26Y-72.01
X117.35Y-127.18
X117.53Y-102.5
X118.87Y-130.68
X122.5Y-122.68
X124.51Y-80.39
X124.55Y-82.22
X126.86Y-85.61
X129.62Y-112.7
X130.2Y-90.69
X131.03Y-154.84
X131.09Y-51.3
X132.55Y-91.87
X135.87Y-90.55
X136.82Y-154.28
X137.44Y-126.77
X139.03Y-58.52
X139.32Y-121.92
X139.67Y-90.41
X143.44Y-90.58
X144.46Y-77.52
X146.15Y-79.12
X146.49Y-57.8
X146.66Y-75.91
X146.99Y-153.07
X147.94Y-77.17
X148.17Y-84.66
X148.36Y-90.53
X148.7Y-112.82
X148.71Y-109.07
X148.88Y-84.17
X148.92Y-116.93
X149.28Y-91.52
X149.81Y-112.62
X149.92Y-108.97
X150.17Y-91.3
X153.Y-153.89
X154.42Y-85.38
X154.84Y-56.33
X155.11Y-51.47
X158.48Y-156.91
X161.98Y-108.37
X166.69Y-99.9
X167.01Y-130.43
X168.02Y-133.85
X171.96Y-119.38
X176.97Y-99.29
X177.08Y-138.14
X177.97Y-135.26
X178.76Y-136.35
X192.02Y-99.48
X192.11Y-107.04
X194.57Y-90.92
X194.69Y-112.21
X196.59Y-118.58
T2
X99.Y-54.25
X99.Y-60.45
X99.Y-82.25
X99.Y-88.45
X99.Y-110.25
X99.Y-116.45
X99.Y-138.25
X99.Y-144.45
X103.Y-60.45
X103.Y-82.25
X103.Y-88.45
X103.Y-110.25
X103.Y-116.45
X103.Y-138.25
X103.Y-144.45
X107.Y-51.
X109.54Y-51.
X112.08Y-51.
X114.62Y-51.
X117.16Y-51.
X119.7Y-51.
X122.24Y-51.
X127.Y-54.25
X127.Y-60.45
X127.Y-82.25
X127.Y-88.45
X127.Y-110.25
X127.Y-116.45
X127.Y-138.25
X127.Y-144.45
X131.Y-60.45
X131.Y-82.25
X131.Y-88.45
X131.Y-110.25
X131.Y-116.45
X131.Y-138.25
X131.Y-144.45
X155.Y-54.25
X155.Y-60.45
X155.Y-82.25
X155.Y-88.45
X155.Y-110.25
X155.Y-116.45
X155.Y-138.25
X155.Y-144.45
X159.Y-60.45
X159.Y-82.25
X159.Y-88.45
X159.Y-110.25
X159.Y-116.45
X159.Y-138.25
X159.Y-144.45
X183.Y-54.25
X183.Y-60.45
X183.Y-82.25
X183.Y-88.45
X183.Y-110.25
X183.Y-116.45
X183.Y-138.25
X183.Y-144.45
X187.Y-60.45
X187.Y-82.25
X187.Y-88.45
X187.Y-110.25
X187.Y-116.45
X187.Y-138.25
X187.Y-144.45
T3
X98.5Y-67.
X98.5Y-95.
X98.5Y-123.
X98.5Y-151.
X101.Y-67.
X101.Y-95.
X101.Y-123.
X101.Y-151.
X103.5Y-67.
X103.5Y-95.
X103.5Y-123.
X103.5Y-151.
X126.5Y-67.
X126.5Y-95.
X126.5Y-123.
X126.5Y-151.
X129.Y-67.
X129.Y-95.
X129.Y-123.
X129.Y-151.
X131.5Y-67.
X131.5Y-95.
X131.5Y-123.
X131.5Y-151.
X154.5Y-67.
X154.5Y-95.
X154.5Y-123.
X154.5Y-151.
X157.Y-67.
X157.Y-95.
X157.Y-123.
X157.Y-151.
X159.5Y-67.
X159.5Y-95.
X159.5Y-123.
X159.5Y-151.
X182.5Y-67.
X182.5Y-95.
X182.5Y-123.
X182.5Y-151.
X185.Y-67.
X185.Y-95.
X185.Y-123.
X185.Y-151.
X187.5Y-67.
X187.5Y-95.
X187.5Y-123.
X187.5Y-151.
T4
X99.001Y-97.747
X99.001Y-147.747
X102.999Y-54.253
X102.999Y-97.747
X102.999Y-104.253
X102.999Y-147.747
X127.001Y-97.747
X127.001Y-147.747
X130.999Y-54.253
X130.999Y-97.747
X130.999Y-104.253
X130.999Y-147.747
X155.001Y-97.747
X155.001Y-147.747
X158.999Y-54.253
X158.999Y-97.747
X158.999Y-104.253
X158.999Y-147.747
X183.001Y-97.747
X183.001Y-147.747
X186.999Y-54.253
X186.999Y-97.747
X186.999Y-104.253
X186.999Y-147.747
T5
X95.75Y-60.
X95.75Y-88.
X95.75Y-116.
X95.75Y-144.
X106.25Y-60.
X106.25Y-88.
X106.25Y-116.
X106.25Y-144.
X123.75Y-60.
X123.75Y-88.
X123.75Y-116.
X123.75Y-144.
X134.25Y-60.
X134.25Y-88.
X134.25Y-116.
X134.25Y-144.
X151.75Y-60.
X151.75Y-88.
X151.75Y-116.
X151.75Y-144.
X162.25Y-60.
X162.25Y-88.
X162.25Y-116.
X162.25Y-144.
X179.75Y-60.
X179.75Y-88.
X179.75Y-116.
X179.75Y-144.
X190.25Y-60.
X190.25Y-88.
X190.25Y-116.
X190.25Y-144.
T6
X91.Y-51.
X91.Y-155.
X195.Y-51.
X195.Y-155.
T0
M30
